<svg width="48" height="40" viewBox="0 0 48 40" fill="none" xmlns="http://www.w3.org/2000/svg">
  <path d="M16.8 0H7.2C3.224 0 0 3.224 0 7.2V32.8C0 36.776 3.224 40 7.2 40H16.8C20.776 40 24 36.776 24 32.8V23.2C24 19.224 20.776 16 16.8 16H12.8C12.3582 16 12 15.6418 12 15.2V7.2C12 3.224 15.224 0 19.2 0H16.8Z" fill="#A72725"/>
  <path d="M40.8 0H31.2C27.224 0 24 3.224 24 7.2V32.8C24 36.776 27.224 40 31.2 40H40.8C44.776 40 48 36.776 48 32.8V23.2C48 19.224 44.776 16 40.8 16H36.8C36.3582 16 36 15.6418 36 15.2V7.2C36 3.224 39.224 0 43.2 0H40.8Z" fill="#A72725"/>
</svg>
